<?xml version="1.0" standalone="no"?>
<!DOCTYPE svg PUBLIC "-//W3C//DTD SVG 20010904//EN"
 "http://www.w3.org/TR/2001/REC-SVG-20010904/DTD/svg10.dtd">
<svg version="1.0" xmlns="http://www.w3.org/2000/svg"
 width="109.000000pt" height="109.000000pt" viewBox="0 0 109.000000 109.000000"
 preserveAspectRatio="xMidYMid meet">

<g transform="translate(0.000000,109.000000) scale(0.100000,-0.100000)"
fill="#000000" stroke="none">
<path d="M981 926 c-7 -8 -15 -30 -18 -50 l-6 -36 -411 0 -412 0 -46 -47 -46
-48 -6 -227 -5 -227 77 -3 77 -3 3 -42 3 -43 79 0 79 0 3 43 c3 39 5 42 36 45
32 3 32 3 32 -42 l0 -46 215 0 215 0 0 40 0 40 55 0 55 0 0 -66 c0 -57 2 -65
18 -62 16 3 17 30 20 367 1 249 6 369 13 378 6 7 22 13 35 13 15 0 24 6 24 15
0 20 -73 21 -89 1z m-21 -366 l0 -240 -442 2 -443 3 -3 197 -2 197 36 41 36
40 409 0 409 0 0 -240z m-650 -295 c0 -23 -4 -25 -45 -25 -37 0 -45 3 -45 18
0 27 9 32 52 32 34 0 38 -3 38 -25z m240 -6 c0 -16 -8 -19 -45 -19 -38 0 -45
3 -45 19 0 13 8 21 23 23 40 6 67 -3 67 -23z m130 1 c0 -17 -7 -20 -45 -20
-38 0 -45 3 -45 20 0 17 7 20 45 20 38 0 45 -3 45 -20z m130 0 c0 -17 -7 -20
-45 -20 -38 0 -45 3 -45 20 0 17 7 20 45 20 38 0 45 -3 45 -20z"/>
<path d="M900 755 c0 -8 9 -15 20 -15 11 0 20 7 20 15 0 8 -9 15 -20 15 -11 0
-20 -7 -20 -15z"/>
<path d="M270 710 c0 -16 -7 -20 -30 -20 -27 0 -30 -3 -30 -30 0 -22 -5 -30
-18 -30 -10 0 -21 -3 -25 -6 -11 -11 5 -34 24 -34 14 0 19 -7 19 -25 0 -20 -5
-25 -26 -25 -33 0 -30 -33 4 -38 17 -3 22 -10 22 -33 0 -26 3 -29 30 -29 25 0
30 -4 30 -25 0 -18 5 -25 20 -25 15 0 20 7 20 26 0 21 4 25 23 22 14 -2 23
-11 25 -26 4 -30 36 -25 40 6 3 17 10 22 33 22 26 0 29 3 29 30 0 23 4 30 20
30 13 0 20 7 20 20 0 13 -7 20 -20 20 -15 0 -20 7 -20 25 0 20 5 25 24 25 17
0 23 5 22 18 -2 9 -12 17 -22 17 -14 0 -20 8 -22 33 -3 28 -7 32 -33 32 -22 0
-29 5 -29 20 0 13 -7 20 -20 20 -13 0 -20 -7 -20 -20 0 -15 -7 -20 -25 -20
-18 0 -25 5 -25 20 0 13 -7 20 -20 20 -13 0 -20 -7 -20 -20z m150 -150 l0 -90
-85 0 -85 0 0 90 0 90 85 0 85 0 0 -90z"/>
<path d="M600 637 c0 -41 4 -54 15 -54 11 0 15 13 15 54 0 40 -4 53 -15 53
-11 0 -15 -13 -15 -53z"/>
<path d="M730 562 c0 -108 2 -129 15 -129 13 0 15 21 15 129 0 107 -2 128 -15
128 -13 0 -15 -21 -15 -128z"/>
<path d="M812 563 c3 -112 5 -128 21 -131 15 -3 17 8 17 127 0 125 -1 131 -20
131 -20 0 -20 -5 -18 -127z"/>
<path d="M598 490 c-2 -42 0 -50 15 -50 14 0 17 9 17 50 0 36 -4 50 -14 50
-10 0 -15 -15 -18 -50z"/>
<path d="M100 369 c0 -14 5 -19 17 -17 26 5 29 38 4 38 -15 0 -21 -6 -21 -21z"/>
<path d="M900 369 c0 -13 7 -19 21 -19 14 0 19 5 17 17 -4 24 -38 26 -38 2z"/>
<path d="M1030 681 c0 -42 3 -51 18 -51 26 0 26 93 0 98 -15 3 -18 -4 -18 -47z"/>
<path d="M1030 463 c0 -58 3 -73 15 -73 12 0 15 15 15 73 0 59 -3 74 -15 74
-12 0 -15 -15 -15 -74z"/>
</g>
</svg>
